<svg id="visual" viewBox="0 0 900 600" width="900" height="600" xmlns="http://www.w3.org/2000/svg" xmlns:xlink="http://www.w3.org/1999/xlink" version="1.1"><rect width="900" height="600" fill="#fff"></rect><g><g transform="translate(850 390)"><path d="M57.6 -49.7C71.9 -28 78.9 -4.2 78 25.1C77.1 54.4 68.4 89.2 46.4 102C24.3 114.8 -11.1 105.6 -35.6 88.3C-60.2 71 -74 45.5 -82.2 16.8C-90.3 -11.9 -92.7 -43.9 -78 -65.7C-63.4 -87.5 -31.7 -99.1 -5 -95.1C21.6 -91.1 43.3 -71.4 57.6 -49.7Z" stroke="#60A5FA" fill="none" stroke-width="33"></path></g><g transform="translate(348 270)"><path d="M57.3 -40.8C71.4 -28.1 77.9 -4.4 72.5 15.4C67.1 35.2 49.7 51.2 29.4 60.9C9.2 70.5 -14 73.9 -35.9 66.5C-57.8 59.1 -78.4 40.8 -79.4 22.2C-80.5 3.6 -61.9 -15.5 -45.4 -28.8C-28.9 -42.1 -14.4 -49.7 3.6 -52.5C21.6 -55.4 43.2 -53.6 57.3 -40.8Z" stroke="#60A5FA" fill="none" stroke-width="33"></path></g><g transform="translate(84 93)"><path d="M37.3 -31.1C45.1 -19.9 46 -4.6 42.5 9.3C39 23.2 31.1 35.8 20.1 40.6C9.2 45.4 -4.9 42.5 -18.1 36.5C-31.2 30.6 -43.4 21.6 -49.1 8C-54.8 -5.7 -54 -24.1 -44.8 -35.5C-35.5 -47 -17.8 -51.6 -1.5 -50.4C14.7 -49.2 29.5 -42.2 37.3 -31.1Z" stroke="#60A5FA" fill="none" stroke-width="33"></path></g><g transform="translate(18 400)"><path d="M59.3 -43.1C73.4 -29.6 79.1 -5.1 74.2 17.2C69.3 39.5 53.8 59.6 33.3 69.7C12.7 79.8 -12.9 80 -29.9 69.1C-46.9 58.3 -55.3 36.4 -58.2 15.6C-61 -5.1 -58.4 -24.8 -47.8 -37.5C-37.1 -50.3 -18.6 -56.2 2 -57.8C22.6 -59.4 45.2 -56.7 59.3 -43.1Z" stroke="#60A5FA" fill="none" stroke-width="33"></path></g></g></svg>